HIERARCHY
ROOT SpineBase
{
  OFFSET 0.000000 0.000000 0.000000
  CHANNELS 6 Xposition Yposition Zposition Zrotation Xrotation Yrotation
  JOINT SpineMid
  {
    OFFSET 0.000000 32.371624 0.000000
    CHANNELS 3 Zrotation Xrotation Yrotation
    JOINT SpineShoulder
    {
      OFFSET -0.026673 24.216339 -0.915667
      CHANNELS 3 Zrotation Xrotation Yrotation
      JOINT Neck
      {
        OFFSET -0.039992 8.077554 -0.689553
        CHANNELS 3 Zrotation Xrotation Yrotation
        JOINT Head
        {
          OFFSET -6.762522 9.240651 3.232375
          CHANNELS 3 Zrotation Xrotation Yrotation
          End Site
          {
            OFFSET 0 0 0
          }
        }
      }
      JOINT ShoulderLeft
      {
        OFFSET -9.636351 -4.591590 14.003005
        CHANNELS 3 Zrotation Xrotation Yrotation
        JOINT ElbowLeft
        {
          OFFSET -4.177735 -26.333853 14.607431
          CHANNELS 3 Zrotation Xrotation Yrotation
          JOINT WristLeft
          {
            OFFSET -9.392633 -21.574495 -1.938040
            CHANNELS 3 Zrotation Xrotation Yrotation
            JOINT HandLeft
            {
              OFFSET -2.111532 -1.602521 -0.666833
              CHANNELS 3 Zrotation Xrotation Yrotation
              JOINT HandTipLeft
              {
                OFFSET -1.463604 -4.102962 -2.095080
                CHANNELS 3 Zrotation Xrotation Yrotation
                End Site
                {
                  OFFSET 0 0 0
                }
              }
              JOINT ThumbLeft
              {
                OFFSET 1.700447 -2.056990 -0.284619
                CHANNELS 3 Zrotation Xrotation Yrotation
                End Site
                {
                  OFFSET 0 0 0
                }
              }
            }
          }
        }
      }
      JOINT ShoulderRight
      {
        OFFSET 9.522106 -0.810652 -12.043994
        CHANNELS 3 Zrotation Xrotation Yrotation
        JOINT ElbowRight
        {
          OFFSET 5.058532 -20.619703 -11.058692
          CHANNELS 3 Zrotation Xrotation Yrotation
          JOINT WristRight
          {
            OFFSET -18.851568 -16.774021 -2.088277
            CHANNELS 3 Zrotation Xrotation Yrotation
            JOINT HandRight
            {
              OFFSET -7.652383 -4.077953 0.013508
              CHANNELS 3 Zrotation Xrotation Yrotation
              JOINT HandTipRight
              {
                OFFSET -5.406509 -4.783383 2.164627
                CHANNELS 3 Zrotation Xrotation Yrotation
                End Site
                {
                  OFFSET 0 0 0
                }
              }
              JOINT ThumbRight
              {
                OFFSET -2.667060 1.731493 -1.630400
                CHANNELS 3 Zrotation Xrotation Yrotation
                End Site
                {
                  OFFSET 0 0 0
                }
              }
            }
          }
        }
      }
    }
  }
  JOINT HipLeft
  {
    OFFSET -3.347479 0.283661 0.776768
    CHANNELS 3 Zrotation Xrotation Yrotation
    JOINT KneeLeft
    {
      OFFSET -3.672262 -34.891297 -1.647878
      CHANNELS 3 Zrotation Xrotation Yrotation
      JOINT AnkleLeft
      {
        OFFSET 3.984180 -35.026291 -0.417698
        CHANNELS 3 Zrotation Xrotation Yrotation
        JOINT FootLeft
        {
          OFFSET -9.012468 -2.743643 -9.881410
          CHANNELS 3 Zrotation Xrotation Yrotation
          End Site
          {
            OFFSET 0 0 0
          }
        }
      }
    }
  }
  JOINT HipRight
  {
    OFFSET 2.576253 2.781325 -8.249874
    CHANNELS 3 Zrotation Xrotation Yrotation
    JOINT KneeRight
    {
      OFFSET 4.527657 -32.612928 -8.569888
      CHANNELS 3 Zrotation Xrotation Yrotation
      JOINT AnkleRight
      {
        OFFSET 2.790391 -36.140344 1.410896
        CHANNELS 3 Zrotation Xrotation Yrotation
        JOINT FootRight
        {
          OFFSET -9.802181 -1.470880 -11.566622
          CHANNELS 3 Zrotation Xrotation Yrotation
          End Site
          {
            OFFSET 0 0 0
          }
        }
      }
    }
  }
}
MOTION
Frames: 5
Frame Time: 0.033333
37.266260 76.887627 342.246759 -0.000000 0.000000 56.725120 0.000000 0.000000 -56.725120 -0.000000 0.000000 0.000000 -0.000000 0.000000 0.000000 0.000000 0.000000 0.000000 -0.000000 0.000000 0.000000 -0.000000 0.000000 0.000000 -0.000000 0.000000 0.000000 -0.000000 0.000000 0.000000 0.000000 0.000000 0.000000 0.000000 0.000000 0.000000 -0.000000 0.000000 0.000000 -0.000000 0.000000 0.000000 -0.000000 0.000000 0.000000 -0.000000 0.000000 0.000000 0.000000 0.000000 0.000000 0.000000 0.000000 0.000000 0.000000 0.000000 -56.725120 -0.000000 0.000000 0.000000 -0.000000 0.000000 0.000000 0.000000 0.000000 0.000000 0.000000 0.000000 -56.725120 -0.000000 0.000000 0.000000 -0.000000 0.000000 0.000000 0.000000 0.000000 0.000000
37.332623 77.024994 342.199961 -0.044105 -0.065272 57.244667 0.078756 -0.001777 -57.244691 -0.000000 0.000000 0.000000 -0.000000 0.000000 0.000000 0.000000 0.000000 0.000000 0.235365 0.989755 -0.028646 -1.034710 -1.754632 0.409151 5.307631 -3.450415 3.582637 -2.095171 2.630278 -4.410894 0.000000 0.000000 0.000000 0.000000 0.000000 0.000000 -0.000000 0.000000 0.000000 -0.000000 0.000000 0.000000 0.196659 0.593377 -1.117446 -0.185060 -0.597096 1.115464 0.000000 0.000000 0.000000 0.000000 0.000000 0.000000 0.078756 -0.001777 -57.244691 -0.000000 0.000000 0.000000 5.808219 -4.962109 -6.452190 0.000000 0.000000 0.000000 0.078756 -0.001777 -57.244691 -0.000000 0.000000 0.000000 1.924465 -2.342903 0.715131 0.000000 0.000000 0.000000
37.394318 77.135181 342.152430 -0.080541 -0.136651 57.689056 0.158542 0.004971 -57.689159 -0.000000 0.000000 0.000000 0.454905 0.931331 0.515793 0.000000 0.000000 0.000000 0.394430 1.798046 -0.073351 -1.847284 -3.367892 0.805555 8.659726 -5.277429 5.960956 -2.737357 4.134048 -7.578180 0.000000 0.000000 0.000000 0.000000 0.000000 0.000000 -0.000000 0.000000 0.000000 -0.000000 0.000000 0.000000 0.407893 1.028358 -1.944965 -0.372819 -1.041585 1.937916 0.000000 0.000000 0.000000 0.000000 0.000000 0.000000 0.158542 0.004971 -57.689159 -0.000000 0.000000 0.000000 11.195616 -10.652961 -12.539059 0.000000 0.000000 0.000000 1.054061 -0.032416 -57.720657 -0.509885 -0.737145 0.028433 3.847139 -4.614639 1.437025 0.000000 0.000000 0.000000
37.451342 77.218188 342.104167 -0.109254 -0.214096 58.056582 0.239480 0.020564 -58.056829 -0.000000 0.000000 0.000000 0.641857 1.180389 0.627889 0.000000 0.000000 0.000000 0.477379 2.425198 -0.131737 -2.434293 -4.836061 1.205220 10.659806 -6.222480 7.580689 -2.705471 5.275420 -10.051626 0.000000 0.000000 0.000000 0.000000 0.000000 0.000000 -0.000000 0.000000 0.000000 -0.000000 0.000000 0.000000 0.628929 1.313404 -2.495273 0.068489 -0.723040 2.126263 0.000000 0.000000 0.000000 0.000000 0.000000 0.000000 0.239480 0.020564 -58.056829 -0.000000 0.000000 0.000000 15.636728 -16.271908 -17.656140 0.000000 0.000000 0.000000 1.462611 -0.076710 -58.110853 -0.728809 -0.987118 0.048345 5.680907 -6.717174 2.114150 0.000000 0.000000 0.000000
37.503698 77.274016 342.055171 -0.130200 -0.297555 58.345833 0.321616 0.045323 -58.346298 -0.000000 0.000000 0.000000 0.805018 1.287892 0.646033 0.000000 0.000000 0.000000 0.484237 2.871780 -0.202165 -2.792476 -6.155513 1.621239 11.616695 -6.635478 8.734011 -2.361624 6.555513 -12.098481 0.000000 0.000000 0.000000 0.000000 0.000000 0.000000 -0.000000 0.000000 0.000000 -0.000000 0.000000 0.000000 0.857631 1.454411 -2.776000 -0.262396 -0.650237 2.089799 0.000000 0.000000 0.000000 0.000000 0.000000 0.000000 0.321616 0.045323 -58.346298 -0.693222 -0.620041 -0.066063 19.545312 -20.422522 -21.638516 0.000000 0.000000 0.000000 1.788461 -0.135436 -58.427374 -0.922116 -1.155042 0.072935 7.325409 -8.551748 2.682348 0.000000 0.000000 0.000000
